<mxfile host="Electron" modified="2023-12-02T22:21:09.109Z" agent="Mozilla/5.0 (Macintosh; Intel Mac OS X 10_15_7) AppleWebKit/537.36 (KHTML, like Gecko) draw.io/22.1.2 Chrome/114.0.5735.289 Electron/25.9.4 Safari/537.36" etag="5bczwVWmuR0LmVOOGZ-z" version="22.1.2" type="device">
  <diagram name="Сторінка-1" id="feQgZpanzRJ13Hxf3hKW">
    <mxGraphModel dx="1464" dy="896" grid="1" gridSize="10" guides="1" tooltips="1" connect="1" arrows="1" fold="1" page="1" pageScale="1" pageWidth="827" pageHeight="1169" math="0" shadow="0">
      <root>
        <mxCell id="0" />
        <mxCell id="1" parent="0" />
        <mxCell id="C-SW5UP0WmHQNfb3BsYA-3" value="" style="edgeStyle=orthogonalEdgeStyle;rounded=0;orthogonalLoop=1;jettySize=auto;html=1;" edge="1" parent="1" source="C-SW5UP0WmHQNfb3BsYA-1" target="C-SW5UP0WmHQNfb3BsYA-2">
          <mxGeometry relative="1" as="geometry" />
        </mxCell>
        <mxCell id="C-SW5UP0WmHQNfb3BsYA-1" value="Start" style="ellipse;whiteSpace=wrap;html=1;" vertex="1" parent="1">
          <mxGeometry x="80" y="40" width="120" height="80" as="geometry" />
        </mxCell>
        <mxCell id="C-SW5UP0WmHQNfb3BsYA-5" value="" style="edgeStyle=orthogonalEdgeStyle;rounded=0;orthogonalLoop=1;jettySize=auto;html=1;" edge="1" parent="1" source="C-SW5UP0WmHQNfb3BsYA-2" target="C-SW5UP0WmHQNfb3BsYA-4">
          <mxGeometry relative="1" as="geometry" />
        </mxCell>
        <mxCell id="C-SW5UP0WmHQNfb3BsYA-2" value="Print manual" style="shape=parallelogram;perimeter=parallelogramPerimeter;whiteSpace=wrap;html=1;fixedSize=1;" vertex="1" parent="1">
          <mxGeometry x="230" y="50" width="120" height="60" as="geometry" />
        </mxCell>
        <mxCell id="C-SW5UP0WmHQNfb3BsYA-7" value="" style="edgeStyle=orthogonalEdgeStyle;rounded=0;orthogonalLoop=1;jettySize=auto;html=1;" edge="1" parent="1" source="C-SW5UP0WmHQNfb3BsYA-4" target="C-SW5UP0WmHQNfb3BsYA-6">
          <mxGeometry relative="1" as="geometry" />
        </mxCell>
        <mxCell id="C-SW5UP0WmHQNfb3BsYA-4" value="Input &amp;gt;&amp;gt; command" style="shape=parallelogram;perimeter=parallelogramPerimeter;whiteSpace=wrap;html=1;fixedSize=1;" vertex="1" parent="1">
          <mxGeometry x="370" y="50" width="140" height="60" as="geometry" />
        </mxCell>
        <mxCell id="C-SW5UP0WmHQNfb3BsYA-9" value="" style="edgeStyle=orthogonalEdgeStyle;rounded=0;orthogonalLoop=1;jettySize=auto;html=1;" edge="1" parent="1" source="C-SW5UP0WmHQNfb3BsYA-6" target="C-SW5UP0WmHQNfb3BsYA-26">
          <mxGeometry relative="1" as="geometry">
            <mxPoint x="124" y="210" as="targetPoint" />
            <Array as="points">
              <mxPoint x="124" y="180" />
            </Array>
          </mxGeometry>
        </mxCell>
        <mxCell id="C-SW5UP0WmHQNfb3BsYA-10" value="&quot;show&quot;" style="edgeLabel;html=1;align=center;verticalAlign=middle;resizable=0;points=[];" vertex="1" connectable="0" parent="C-SW5UP0WmHQNfb3BsYA-9">
          <mxGeometry x="-0.5643" y="6" relative="1" as="geometry">
            <mxPoint as="offset" />
          </mxGeometry>
        </mxCell>
        <mxCell id="C-SW5UP0WmHQNfb3BsYA-12" value="" style="edgeStyle=orthogonalEdgeStyle;rounded=0;orthogonalLoop=1;jettySize=auto;html=1;entryX=1;entryY=0.5;entryDx=0;entryDy=0;" edge="1" parent="1" source="C-SW5UP0WmHQNfb3BsYA-6" target="C-SW5UP0WmHQNfb3BsYA-37">
          <mxGeometry relative="1" as="geometry">
            <mxPoint x="334" y="240" as="targetPoint" />
          </mxGeometry>
        </mxCell>
        <mxCell id="C-SW5UP0WmHQNfb3BsYA-13" value="&quot;take&quot;" style="edgeLabel;html=1;align=center;verticalAlign=middle;resizable=0;points=[];" vertex="1" connectable="0" parent="C-SW5UP0WmHQNfb3BsYA-12">
          <mxGeometry x="-0.0545" y="3" relative="1" as="geometry">
            <mxPoint as="offset" />
          </mxGeometry>
        </mxCell>
        <mxCell id="C-SW5UP0WmHQNfb3BsYA-15" value="" style="edgeStyle=orthogonalEdgeStyle;rounded=0;orthogonalLoop=1;jettySize=auto;html=1;" edge="1" parent="1" source="C-SW5UP0WmHQNfb3BsYA-6">
          <mxGeometry relative="1" as="geometry">
            <mxPoint x="734" y="200" as="targetPoint" />
            <Array as="points">
              <mxPoint x="734" y="180" />
            </Array>
          </mxGeometry>
        </mxCell>
        <mxCell id="C-SW5UP0WmHQNfb3BsYA-16" value="&quot;quit&quot;" style="edgeLabel;html=1;align=center;verticalAlign=middle;resizable=0;points=[];" vertex="1" connectable="0" parent="C-SW5UP0WmHQNfb3BsYA-15">
          <mxGeometry x="-0.4727" y="2" relative="1" as="geometry">
            <mxPoint as="offset" />
          </mxGeometry>
        </mxCell>
        <mxCell id="C-SW5UP0WmHQNfb3BsYA-18" value="&quot;return&quot;" style="edgeStyle=orthogonalEdgeStyle;rounded=0;orthogonalLoop=1;jettySize=auto;html=1;" edge="1" parent="1" source="C-SW5UP0WmHQNfb3BsYA-6">
          <mxGeometry relative="1" as="geometry">
            <mxPoint x="534" y="230" as="targetPoint" />
          </mxGeometry>
        </mxCell>
        <mxCell id="C-SW5UP0WmHQNfb3BsYA-6" value="command" style="rhombus;whiteSpace=wrap;html=1;" vertex="1" parent="1">
          <mxGeometry x="394" y="150" width="80" height="80" as="geometry" />
        </mxCell>
        <mxCell id="C-SW5UP0WmHQNfb3BsYA-19" value="End" style="ellipse;whiteSpace=wrap;html=1;" vertex="1" parent="1">
          <mxGeometry x="674" y="200" width="120" height="80" as="geometry" />
        </mxCell>
        <mxCell id="C-SW5UP0WmHQNfb3BsYA-22" value="" style="edgeStyle=orthogonalEdgeStyle;rounded=0;orthogonalLoop=1;jettySize=auto;html=1;" edge="1" parent="1" source="C-SW5UP0WmHQNfb3BsYA-20" target="C-SW5UP0WmHQNfb3BsYA-23">
          <mxGeometry relative="1" as="geometry">
            <mxPoint x="584" y="290" as="targetPoint" />
          </mxGeometry>
        </mxCell>
        <mxCell id="C-SW5UP0WmHQNfb3BsYA-20" value="cin &amp;gt;&amp;gt; name" style="shape=parallelogram;perimeter=parallelogramPerimeter;whiteSpace=wrap;html=1;fixedSize=1;" vertex="1" parent="1">
          <mxGeometry x="524" y="200" width="120" height="60" as="geometry" />
        </mxCell>
        <mxCell id="C-SW5UP0WmHQNfb3BsYA-23" value="ret&lt;br&gt;(name)" style="ellipse;whiteSpace=wrap;html=1;aspect=fixed;" vertex="1" parent="1">
          <mxGeometry x="559" y="280" width="50" height="50" as="geometry" />
        </mxCell>
        <mxCell id="C-SW5UP0WmHQNfb3BsYA-26" value="show" style="ellipse;whiteSpace=wrap;html=1;aspect=fixed;" vertex="1" parent="1">
          <mxGeometry x="94" y="205" width="60" height="60" as="geometry" />
        </mxCell>
        <mxCell id="C-SW5UP0WmHQNfb3BsYA-29" value="" style="endArrow=classic;html=1;rounded=0;" edge="1" parent="1">
          <mxGeometry width="50" height="50" relative="1" as="geometry">
            <mxPoint x="340" y="120" as="sourcePoint" />
            <mxPoint x="350" y="80" as="targetPoint" />
          </mxGeometry>
        </mxCell>
        <mxCell id="C-SW5UP0WmHQNfb3BsYA-32" value="" style="endArrow=none;html=1;rounded=0;" edge="1" parent="1">
          <mxGeometry width="50" height="50" relative="1" as="geometry">
            <mxPoint x="34" y="120" as="sourcePoint" />
            <mxPoint x="344" y="120" as="targetPoint" />
          </mxGeometry>
        </mxCell>
        <mxCell id="C-SW5UP0WmHQNfb3BsYA-33" value="" style="endArrow=none;html=1;rounded=0;" edge="1" parent="1">
          <mxGeometry width="50" height="50" relative="1" as="geometry">
            <mxPoint x="34" y="120" as="sourcePoint" />
            <mxPoint x="34" y="350" as="targetPoint" />
          </mxGeometry>
        </mxCell>
        <mxCell id="C-SW5UP0WmHQNfb3BsYA-34" value="" style="endArrow=none;html=1;rounded=0;" edge="1" parent="1">
          <mxGeometry width="50" height="50" relative="1" as="geometry">
            <mxPoint x="584" y="350" as="sourcePoint" />
            <mxPoint x="34" y="350" as="targetPoint" />
          </mxGeometry>
        </mxCell>
        <mxCell id="C-SW5UP0WmHQNfb3BsYA-35" value="" style="endArrow=none;html=1;rounded=0;exitX=0.5;exitY=1;exitDx=0;exitDy=0;" edge="1" parent="1" source="C-SW5UP0WmHQNfb3BsYA-23">
          <mxGeometry width="50" height="50" relative="1" as="geometry">
            <mxPoint x="394" y="330" as="sourcePoint" />
            <mxPoint x="584" y="350" as="targetPoint" />
          </mxGeometry>
        </mxCell>
        <mxCell id="C-SW5UP0WmHQNfb3BsYA-36" value="" style="endArrow=none;html=1;rounded=0;exitX=0.5;exitY=1;exitDx=0;exitDy=0;" edge="1" parent="1" source="C-SW5UP0WmHQNfb3BsYA-26">
          <mxGeometry width="50" height="50" relative="1" as="geometry">
            <mxPoint x="394" y="330" as="sourcePoint" />
            <mxPoint x="124" y="350" as="targetPoint" />
          </mxGeometry>
        </mxCell>
        <mxCell id="C-SW5UP0WmHQNfb3BsYA-42" value="" style="edgeStyle=orthogonalEdgeStyle;rounded=0;orthogonalLoop=1;jettySize=auto;html=1;" edge="1" parent="1" source="C-SW5UP0WmHQNfb3BsYA-37" target="C-SW5UP0WmHQNfb3BsYA-41">
          <mxGeometry relative="1" as="geometry" />
        </mxCell>
        <mxCell id="C-SW5UP0WmHQNfb3BsYA-37" value="cin &amp;gt;&amp;gt; name" style="shape=parallelogram;perimeter=parallelogramPerimeter;whiteSpace=wrap;html=1;fixedSize=1;" vertex="1" parent="1">
          <mxGeometry x="204" y="205" width="120" height="55" as="geometry" />
        </mxCell>
        <mxCell id="C-SW5UP0WmHQNfb3BsYA-41" value="take&lt;br&gt;(name)" style="ellipse;whiteSpace=wrap;html=1;aspect=fixed;" vertex="1" parent="1">
          <mxGeometry x="240.25" y="282.5" width="47.5" height="47.5" as="geometry" />
        </mxCell>
        <mxCell id="C-SW5UP0WmHQNfb3BsYA-43" value="" style="endArrow=none;html=1;rounded=0;entryX=0.5;entryY=1;entryDx=0;entryDy=0;" edge="1" parent="1" target="C-SW5UP0WmHQNfb3BsYA-41">
          <mxGeometry width="50" height="50" relative="1" as="geometry">
            <mxPoint x="264" y="350" as="sourcePoint" />
            <mxPoint x="444" y="280" as="targetPoint" />
          </mxGeometry>
        </mxCell>
        <mxCell id="C-SW5UP0WmHQNfb3BsYA-47" value="" style="edgeStyle=orthogonalEdgeStyle;rounded=0;orthogonalLoop=1;jettySize=auto;html=1;" edge="1" parent="1" source="C-SW5UP0WmHQNfb3BsYA-44" target="C-SW5UP0WmHQNfb3BsYA-46">
          <mxGeometry relative="1" as="geometry" />
        </mxCell>
        <mxCell id="C-SW5UP0WmHQNfb3BsYA-44" value="show" style="ellipse;whiteSpace=wrap;html=1;aspect=fixed;" vertex="1" parent="1">
          <mxGeometry x="20" y="445" width="50" height="50" as="geometry" />
        </mxCell>
        <mxCell id="C-SW5UP0WmHQNfb3BsYA-81" value="" style="edgeStyle=orthogonalEdgeStyle;rounded=0;orthogonalLoop=1;jettySize=auto;html=1;" edge="1" parent="1" source="C-SW5UP0WmHQNfb3BsYA-46" target="C-SW5UP0WmHQNfb3BsYA-80">
          <mxGeometry relative="1" as="geometry" />
        </mxCell>
        <mxCell id="C-SW5UP0WmHQNfb3BsYA-46" value="i = 0" style="whiteSpace=wrap;html=1;" vertex="1" parent="1">
          <mxGeometry x="110" y="440" width="120" height="60" as="geometry" />
        </mxCell>
        <mxCell id="C-SW5UP0WmHQNfb3BsYA-53" value="" style="edgeStyle=orthogonalEdgeStyle;rounded=0;orthogonalLoop=1;jettySize=auto;html=1;" edge="1" parent="1" source="C-SW5UP0WmHQNfb3BsYA-50" target="C-SW5UP0WmHQNfb3BsYA-52">
          <mxGeometry relative="1" as="geometry" />
        </mxCell>
        <mxCell id="C-SW5UP0WmHQNfb3BsYA-50" value="cout &amp;lt;&amp;lt; book name [i]" style="shape=parallelogram;perimeter=parallelogramPerimeter;whiteSpace=wrap;html=1;fixedSize=1;" vertex="1" parent="1">
          <mxGeometry x="420" y="440" width="145" height="60" as="geometry" />
        </mxCell>
        <mxCell id="C-SW5UP0WmHQNfb3BsYA-55" value="" style="edgeStyle=orthogonalEdgeStyle;rounded=0;orthogonalLoop=1;jettySize=auto;html=1;" edge="1" parent="1" source="C-SW5UP0WmHQNfb3BsYA-52">
          <mxGeometry relative="1" as="geometry">
            <mxPoint x="685" y="412" as="targetPoint" />
            <Array as="points">
              <mxPoint x="629" y="412" />
            </Array>
          </mxGeometry>
        </mxCell>
        <mxCell id="C-SW5UP0WmHQNfb3BsYA-57" value="" style="edgeStyle=orthogonalEdgeStyle;rounded=0;orthogonalLoop=1;jettySize=auto;html=1;" edge="1" parent="1" source="C-SW5UP0WmHQNfb3BsYA-52">
          <mxGeometry relative="1" as="geometry">
            <mxPoint x="690" y="532" as="targetPoint" />
            <Array as="points">
              <mxPoint x="629" y="532" />
            </Array>
          </mxGeometry>
        </mxCell>
        <mxCell id="C-SW5UP0WmHQNfb3BsYA-52" value="is availible" style="rhombus;whiteSpace=wrap;html=1;" vertex="1" parent="1">
          <mxGeometry x="590" y="432" width="77.5" height="80" as="geometry" />
        </mxCell>
        <mxCell id="C-SW5UP0WmHQNfb3BsYA-77" style="edgeStyle=orthogonalEdgeStyle;rounded=0;orthogonalLoop=1;jettySize=auto;html=1;entryX=0.5;entryY=0;entryDx=0;entryDy=0;" edge="1" parent="1" target="C-SW5UP0WmHQNfb3BsYA-62">
          <mxGeometry relative="1" as="geometry">
            <mxPoint x="745" y="402" as="sourcePoint" />
          </mxGeometry>
        </mxCell>
        <mxCell id="C-SW5UP0WmHQNfb3BsYA-64" value="" style="edgeStyle=orthogonalEdgeStyle;rounded=0;orthogonalLoop=1;jettySize=auto;html=1;" edge="1" parent="1" target="C-SW5UP0WmHQNfb3BsYA-62">
          <mxGeometry relative="1" as="geometry">
            <mxPoint x="740" y="532" as="sourcePoint" />
          </mxGeometry>
        </mxCell>
        <mxCell id="C-SW5UP0WmHQNfb3BsYA-62" value="i++" style="whiteSpace=wrap;html=1;" vertex="1" parent="1">
          <mxGeometry x="760" y="440" width="40" height="50" as="geometry" />
        </mxCell>
        <mxCell id="C-SW5UP0WmHQNfb3BsYA-67" value="Yes" style="text;html=1;align=center;verticalAlign=middle;resizable=0;points=[];autosize=1;strokeColor=none;fillColor=none;" vertex="1" parent="1">
          <mxGeometry x="627.5" y="387" width="40" height="30" as="geometry" />
        </mxCell>
        <mxCell id="C-SW5UP0WmHQNfb3BsYA-68" value="No" style="text;html=1;align=center;verticalAlign=middle;resizable=0;points=[];autosize=1;strokeColor=none;fillColor=none;" vertex="1" parent="1">
          <mxGeometry x="640" y="532" width="40" height="30" as="geometry" />
        </mxCell>
        <mxCell id="C-SW5UP0WmHQNfb3BsYA-70" value="" style="endArrow=classic;html=1;rounded=0;" edge="1" parent="1">
          <mxGeometry width="50" height="50" relative="1" as="geometry">
            <mxPoint x="240" y="542" as="sourcePoint" />
            <mxPoint x="240" y="472" as="targetPoint" />
          </mxGeometry>
        </mxCell>
        <mxCell id="C-SW5UP0WmHQNfb3BsYA-71" value="" style="endArrow=none;html=1;rounded=0;" edge="1" parent="1">
          <mxGeometry width="50" height="50" relative="1" as="geometry">
            <mxPoint x="440" y="542" as="sourcePoint" />
            <mxPoint x="240" y="542" as="targetPoint" />
          </mxGeometry>
        </mxCell>
        <mxCell id="C-SW5UP0WmHQNfb3BsYA-72" value="" style="endArrow=none;html=1;rounded=0;" edge="1" parent="1">
          <mxGeometry width="50" height="50" relative="1" as="geometry">
            <mxPoint x="440" y="582" as="sourcePoint" />
            <mxPoint x="440" y="542" as="targetPoint" />
          </mxGeometry>
        </mxCell>
        <mxCell id="C-SW5UP0WmHQNfb3BsYA-73" value="" style="endArrow=none;html=1;rounded=0;" edge="1" parent="1">
          <mxGeometry width="50" height="50" relative="1" as="geometry">
            <mxPoint x="730" y="582" as="sourcePoint" />
            <mxPoint x="440" y="582" as="targetPoint" />
          </mxGeometry>
        </mxCell>
        <mxCell id="C-SW5UP0WmHQNfb3BsYA-79" value="" style="endArrow=none;html=1;rounded=0;entryX=1;entryY=0.5;entryDx=0;entryDy=0;" edge="1" parent="1" target="C-SW5UP0WmHQNfb3BsYA-62">
          <mxGeometry width="50" height="50" relative="1" as="geometry">
            <mxPoint x="730" y="582" as="sourcePoint" />
            <mxPoint x="450" y="412" as="targetPoint" />
            <Array as="points">
              <mxPoint x="820" y="582" />
              <mxPoint x="820" y="465" />
            </Array>
          </mxGeometry>
        </mxCell>
        <mxCell id="C-SW5UP0WmHQNfb3BsYA-82" value="" style="edgeStyle=orthogonalEdgeStyle;rounded=0;orthogonalLoop=1;jettySize=auto;html=1;" edge="1" parent="1" source="C-SW5UP0WmHQNfb3BsYA-80" target="C-SW5UP0WmHQNfb3BsYA-50">
          <mxGeometry relative="1" as="geometry" />
        </mxCell>
        <mxCell id="C-SW5UP0WmHQNfb3BsYA-80" value="i==number&lt;br&gt;of books" style="rhombus;whiteSpace=wrap;html=1;" vertex="1" parent="1">
          <mxGeometry x="260" y="430" width="90" height="80" as="geometry" />
        </mxCell>
        <mxCell id="C-SW5UP0WmHQNfb3BsYA-83" value="No" style="text;html=1;align=center;verticalAlign=middle;resizable=0;points=[];autosize=1;strokeColor=none;fillColor=none;" vertex="1" parent="1">
          <mxGeometry x="360" y="440" width="40" height="30" as="geometry" />
        </mxCell>
        <mxCell id="C-SW5UP0WmHQNfb3BsYA-87" value="exit" style="ellipse;whiteSpace=wrap;html=1;aspect=fixed;" vertex="1" parent="1">
          <mxGeometry x="285" y="372" width="40" height="40" as="geometry" />
        </mxCell>
        <mxCell id="C-SW5UP0WmHQNfb3BsYA-88" value="" style="endArrow=classic;html=1;rounded=0;entryX=0.5;entryY=1;entryDx=0;entryDy=0;exitX=0.5;exitY=0;exitDx=0;exitDy=0;" edge="1" parent="1" source="C-SW5UP0WmHQNfb3BsYA-80" target="C-SW5UP0WmHQNfb3BsYA-87">
          <mxGeometry width="50" height="50" relative="1" as="geometry">
            <mxPoint x="270" y="462" as="sourcePoint" />
            <mxPoint x="320" y="412" as="targetPoint" />
          </mxGeometry>
        </mxCell>
        <mxCell id="C-SW5UP0WmHQNfb3BsYA-157" value="&lt;meta charset=&quot;utf-8&quot;&gt;&lt;span style=&quot;color: rgb(0, 0, 0); font-family: Helvetica; font-size: 12px; font-style: normal; font-variant-ligatures: normal; font-variant-caps: normal; font-weight: 400; letter-spacing: normal; orphans: 2; text-align: center; text-indent: 0px; text-transform: none; widows: 2; word-spacing: 0px; -webkit-text-stroke-width: 0px; background-color: rgb(251, 251, 251); text-decoration-thickness: initial; text-decoration-style: initial; text-decoration-color: initial; float: none; display: inline !important;&quot;&gt;cout &amp;lt;&amp;lt; not availible&lt;/span&gt;" style="shape=parallelogram;perimeter=parallelogramPerimeter;whiteSpace=wrap;html=1;fixedSize=1;" vertex="1" parent="1">
          <mxGeometry x="680" y="502" width="90" height="60" as="geometry" />
        </mxCell>
        <mxCell id="C-SW5UP0WmHQNfb3BsYA-158" value="&lt;meta charset=&quot;utf-8&quot;&gt;&lt;span style=&quot;color: rgb(0, 0, 0); font-family: Helvetica; font-size: 12px; font-style: normal; font-variant-ligatures: normal; font-variant-caps: normal; font-weight: 400; letter-spacing: normal; orphans: 2; text-align: center; text-indent: 0px; text-transform: none; widows: 2; word-spacing: 0px; -webkit-text-stroke-width: 0px; background-color: rgb(251, 251, 251); text-decoration-thickness: initial; text-decoration-style: initial; text-decoration-color: initial; float: none; display: inline !important;&quot;&gt;cout &amp;lt;&amp;lt; availible&lt;/span&gt;" style="shape=parallelogram;perimeter=parallelogramPerimeter;whiteSpace=wrap;html=1;fixedSize=1;" vertex="1" parent="1">
          <mxGeometry x="676" y="370" width="80" height="60" as="geometry" />
        </mxCell>
        <mxCell id="C-SW5UP0WmHQNfb3BsYA-161" value="" style="edgeStyle=orthogonalEdgeStyle;rounded=0;orthogonalLoop=1;jettySize=auto;html=1;" edge="1" parent="1" source="C-SW5UP0WmHQNfb3BsYA-162" target="C-SW5UP0WmHQNfb3BsYA-163">
          <mxGeometry relative="1" as="geometry" />
        </mxCell>
        <mxCell id="C-SW5UP0WmHQNfb3BsYA-162" value="ret&lt;br&gt;(name)" style="ellipse;whiteSpace=wrap;html=1;aspect=fixed;" vertex="1" parent="1">
          <mxGeometry x="35.63" y="867" width="50" height="50" as="geometry" />
        </mxCell>
        <mxCell id="C-SW5UP0WmHQNfb3BsYA-163" value="i = 0" style="whiteSpace=wrap;html=1;" vertex="1" parent="1">
          <mxGeometry x="130.63" y="862" width="120" height="60" as="geometry" />
        </mxCell>
        <mxCell id="C-SW5UP0WmHQNfb3BsYA-164" value="" style="edgeStyle=orthogonalEdgeStyle;rounded=0;orthogonalLoop=1;jettySize=auto;html=1;" edge="1" parent="1" target="C-SW5UP0WmHQNfb3BsYA-179">
          <mxGeometry relative="1" as="geometry">
            <mxPoint x="250.63" y="892" as="sourcePoint" />
          </mxGeometry>
        </mxCell>
        <mxCell id="C-SW5UP0WmHQNfb3BsYA-165" value="" style="edgeStyle=orthogonalEdgeStyle;rounded=0;orthogonalLoop=1;jettySize=auto;html=1;" edge="1" parent="1" source="C-SW5UP0WmHQNfb3BsYA-172" target="C-SW5UP0WmHQNfb3BsYA-169">
          <mxGeometry relative="1" as="geometry">
            <Array as="points">
              <mxPoint x="599" y="832" />
            </Array>
          </mxGeometry>
        </mxCell>
        <mxCell id="C-SW5UP0WmHQNfb3BsYA-166" value="" style="edgeStyle=orthogonalEdgeStyle;rounded=0;orthogonalLoop=1;jettySize=auto;html=1;" edge="1" parent="1" source="C-SW5UP0WmHQNfb3BsYA-167" target="C-SW5UP0WmHQNfb3BsYA-185">
          <mxGeometry relative="1" as="geometry">
            <Array as="points">
              <mxPoint x="599" y="952" />
            </Array>
            <mxPoint x="660" y="952" as="targetPoint" />
          </mxGeometry>
        </mxCell>
        <mxCell id="C-SW5UP0WmHQNfb3BsYA-167" value="is taken" style="rhombus;whiteSpace=wrap;html=1;" vertex="1" parent="1">
          <mxGeometry x="560" y="852" width="77.5" height="80" as="geometry" />
        </mxCell>
        <mxCell id="C-SW5UP0WmHQNfb3BsYA-191" style="edgeStyle=orthogonalEdgeStyle;rounded=0;orthogonalLoop=1;jettySize=auto;html=1;" edge="1" parent="1" source="C-SW5UP0WmHQNfb3BsYA-169" target="C-SW5UP0WmHQNfb3BsYA-184">
          <mxGeometry relative="1" as="geometry" />
        </mxCell>
        <mxCell id="C-SW5UP0WmHQNfb3BsYA-169" value="change&amp;nbsp;&lt;br&gt;availibility&lt;br&gt;in database" style="whiteSpace=wrap;html=1;" vertex="1" parent="1">
          <mxGeometry x="655" y="792" width="60" height="60" as="geometry" />
        </mxCell>
        <mxCell id="C-SW5UP0WmHQNfb3BsYA-171" value="Yes" style="text;html=1;align=center;verticalAlign=middle;resizable=0;points=[];autosize=1;strokeColor=none;fillColor=none;" vertex="1" parent="1">
          <mxGeometry x="590" y="947" width="40" height="30" as="geometry" />
        </mxCell>
        <mxCell id="C-SW5UP0WmHQNfb3BsYA-173" value="" style="endArrow=classic;html=1;rounded=0;" edge="1" parent="1">
          <mxGeometry width="50" height="50" relative="1" as="geometry">
            <mxPoint x="260.63" y="964" as="sourcePoint" />
            <mxPoint x="260.63" y="894" as="targetPoint" />
          </mxGeometry>
        </mxCell>
        <mxCell id="C-SW5UP0WmHQNfb3BsYA-174" value="" style="endArrow=none;html=1;rounded=0;exitX=0;exitY=0.5;exitDx=0;exitDy=0;" edge="1" parent="1" source="C-SW5UP0WmHQNfb3BsYA-220">
          <mxGeometry width="50" height="50" relative="1" as="geometry">
            <mxPoint x="365" y="975" as="sourcePoint" />
            <mxPoint x="260.63" y="964" as="targetPoint" />
          </mxGeometry>
        </mxCell>
        <mxCell id="C-SW5UP0WmHQNfb3BsYA-175" value="" style="endArrow=none;html=1;rounded=0;exitX=0.5;exitY=1;exitDx=0;exitDy=0;" edge="1" parent="1" source="C-SW5UP0WmHQNfb3BsYA-186">
          <mxGeometry width="50" height="50" relative="1" as="geometry">
            <mxPoint x="460.63" y="1004" as="sourcePoint" />
            <mxPoint x="471" y="962" as="targetPoint" />
          </mxGeometry>
        </mxCell>
        <mxCell id="C-SW5UP0WmHQNfb3BsYA-178" value="" style="edgeStyle=orthogonalEdgeStyle;rounded=0;orthogonalLoop=1;jettySize=auto;html=1;" edge="1" parent="1" source="C-SW5UP0WmHQNfb3BsYA-179" target="C-SW5UP0WmHQNfb3BsYA-186">
          <mxGeometry relative="1" as="geometry">
            <mxPoint x="450.63" y="892" as="targetPoint" />
          </mxGeometry>
        </mxCell>
        <mxCell id="C-SW5UP0WmHQNfb3BsYA-179" value="i==number&lt;br&gt;of books" style="rhombus;whiteSpace=wrap;html=1;" vertex="1" parent="1">
          <mxGeometry x="280.63" y="852" width="90" height="80" as="geometry" />
        </mxCell>
        <mxCell id="C-SW5UP0WmHQNfb3BsYA-180" value="No" style="text;html=1;align=center;verticalAlign=middle;resizable=0;points=[];autosize=1;strokeColor=none;fillColor=none;" vertex="1" parent="1">
          <mxGeometry x="374" y="867" width="40" height="30" as="geometry" />
        </mxCell>
        <mxCell id="C-SW5UP0WmHQNfb3BsYA-181" value="exit" style="ellipse;whiteSpace=wrap;html=1;aspect=fixed;" vertex="1" parent="1">
          <mxGeometry x="305.63" y="794" width="40" height="40" as="geometry" />
        </mxCell>
        <mxCell id="C-SW5UP0WmHQNfb3BsYA-182" value="" style="endArrow=classic;html=1;rounded=0;entryX=0.5;entryY=1;entryDx=0;entryDy=0;exitX=0.5;exitY=0;exitDx=0;exitDy=0;" edge="1" parent="1" source="C-SW5UP0WmHQNfb3BsYA-179" target="C-SW5UP0WmHQNfb3BsYA-181">
          <mxGeometry width="50" height="50" relative="1" as="geometry">
            <mxPoint x="290.63" y="884" as="sourcePoint" />
            <mxPoint x="340.63" y="834" as="targetPoint" />
          </mxGeometry>
        </mxCell>
        <mxCell id="C-SW5UP0WmHQNfb3BsYA-183" value="" style="edgeStyle=orthogonalEdgeStyle;rounded=0;orthogonalLoop=1;jettySize=auto;html=1;" edge="1" parent="1" target="C-SW5UP0WmHQNfb3BsYA-184">
          <mxGeometry relative="1" as="geometry">
            <mxPoint x="710" y="952" as="sourcePoint" />
            <mxPoint x="765" y="952" as="targetPoint" />
          </mxGeometry>
        </mxCell>
        <mxCell id="C-SW5UP0WmHQNfb3BsYA-184" value="exit" style="ellipse;whiteSpace=wrap;html=1;aspect=fixed;" vertex="1" parent="1">
          <mxGeometry x="740" y="932" width="40" height="40" as="geometry" />
        </mxCell>
        <mxCell id="C-SW5UP0WmHQNfb3BsYA-185" value="&lt;span style=&quot;color: rgb(0, 0, 0); font-family: Helvetica; font-size: 12px; font-style: normal; font-variant-ligatures: normal; font-variant-caps: normal; font-weight: 400; letter-spacing: normal; orphans: 2; text-align: center; text-indent: 0px; text-transform: none; widows: 2; word-spacing: 0px; -webkit-text-stroke-width: 0px; background-color: rgb(251, 251, 251); text-decoration-thickness: initial; text-decoration-style: initial; text-decoration-color: initial; float: none; display: inline !important;&quot;&gt;cout &amp;lt;&amp;lt;&lt;br&gt;is already&lt;br&gt;returned&lt;br&gt;&lt;/span&gt;" style="shape=parallelogram;perimeter=parallelogramPerimeter;whiteSpace=wrap;html=1;fixedSize=1;" vertex="1" parent="1">
          <mxGeometry x="630" y="922" width="90" height="60" as="geometry" />
        </mxCell>
        <mxCell id="C-SW5UP0WmHQNfb3BsYA-187" value="" style="edgeStyle=orthogonalEdgeStyle;rounded=0;orthogonalLoop=1;jettySize=auto;html=1;" edge="1" parent="1" source="C-SW5UP0WmHQNfb3BsYA-186" target="C-SW5UP0WmHQNfb3BsYA-167">
          <mxGeometry relative="1" as="geometry" />
        </mxCell>
        <mxCell id="C-SW5UP0WmHQNfb3BsYA-186" value="name == book_name [i]" style="rhombus;whiteSpace=wrap;html=1;" vertex="1" parent="1">
          <mxGeometry x="416.25" y="852" width="110" height="80" as="geometry" />
        </mxCell>
        <mxCell id="C-SW5UP0WmHQNfb3BsYA-188" value="Yes" style="text;html=1;align=center;verticalAlign=middle;resizable=0;points=[];autosize=1;strokeColor=none;fillColor=none;" vertex="1" parent="1">
          <mxGeometry x="517.5" y="867" width="40" height="30" as="geometry" />
        </mxCell>
        <mxCell id="C-SW5UP0WmHQNfb3BsYA-189" value="No" style="text;html=1;align=center;verticalAlign=middle;resizable=0;points=[];autosize=1;strokeColor=none;fillColor=none;" vertex="1" parent="1">
          <mxGeometry x="472.5" y="937" width="40" height="30" as="geometry" />
        </mxCell>
        <mxCell id="C-SW5UP0WmHQNfb3BsYA-192" value="" style="edgeStyle=orthogonalEdgeStyle;rounded=0;orthogonalLoop=1;jettySize=auto;html=1;" edge="1" parent="1" source="C-SW5UP0WmHQNfb3BsYA-193" target="C-SW5UP0WmHQNfb3BsYA-194">
          <mxGeometry relative="1" as="geometry" />
        </mxCell>
        <mxCell id="C-SW5UP0WmHQNfb3BsYA-193" value="ret&lt;br&gt;(name)" style="ellipse;whiteSpace=wrap;html=1;aspect=fixed;" vertex="1" parent="1">
          <mxGeometry x="25.630000000000003" y="667" width="50" height="50" as="geometry" />
        </mxCell>
        <mxCell id="C-SW5UP0WmHQNfb3BsYA-194" value="i = 0" style="whiteSpace=wrap;html=1;" vertex="1" parent="1">
          <mxGeometry x="120.63" y="662" width="120" height="60" as="geometry" />
        </mxCell>
        <mxCell id="C-SW5UP0WmHQNfb3BsYA-195" value="" style="edgeStyle=orthogonalEdgeStyle;rounded=0;orthogonalLoop=1;jettySize=auto;html=1;" edge="1" parent="1" target="C-SW5UP0WmHQNfb3BsYA-207">
          <mxGeometry relative="1" as="geometry">
            <mxPoint x="240.63" y="692" as="sourcePoint" />
          </mxGeometry>
        </mxCell>
        <mxCell id="C-SW5UP0WmHQNfb3BsYA-196" value="" style="edgeStyle=orthogonalEdgeStyle;rounded=0;orthogonalLoop=1;jettySize=auto;html=1;" edge="1" parent="1" source="C-SW5UP0WmHQNfb3BsYA-198" target="C-SW5UP0WmHQNfb3BsYA-200">
          <mxGeometry relative="1" as="geometry">
            <Array as="points">
              <mxPoint x="589" y="632" />
            </Array>
          </mxGeometry>
        </mxCell>
        <mxCell id="C-SW5UP0WmHQNfb3BsYA-197" value="" style="edgeStyle=orthogonalEdgeStyle;rounded=0;orthogonalLoop=1;jettySize=auto;html=1;" edge="1" parent="1" source="C-SW5UP0WmHQNfb3BsYA-198" target="C-SW5UP0WmHQNfb3BsYA-213">
          <mxGeometry relative="1" as="geometry">
            <Array as="points">
              <mxPoint x="589" y="752" />
            </Array>
            <mxPoint x="650" y="752" as="targetPoint" />
          </mxGeometry>
        </mxCell>
        <mxCell id="C-SW5UP0WmHQNfb3BsYA-198" value="is availible" style="rhombus;whiteSpace=wrap;html=1;" vertex="1" parent="1">
          <mxGeometry x="550" y="652" width="77.5" height="80" as="geometry" />
        </mxCell>
        <mxCell id="C-SW5UP0WmHQNfb3BsYA-199" style="edgeStyle=orthogonalEdgeStyle;rounded=0;orthogonalLoop=1;jettySize=auto;html=1;" edge="1" parent="1" source="C-SW5UP0WmHQNfb3BsYA-200" target="C-SW5UP0WmHQNfb3BsYA-212">
          <mxGeometry relative="1" as="geometry" />
        </mxCell>
        <mxCell id="C-SW5UP0WmHQNfb3BsYA-200" value="change&amp;nbsp;&lt;br&gt;availibility&lt;br&gt;in database" style="whiteSpace=wrap;html=1;" vertex="1" parent="1">
          <mxGeometry x="645" y="592" width="60" height="60" as="geometry" />
        </mxCell>
        <mxCell id="C-SW5UP0WmHQNfb3BsYA-201" value="Yes" style="text;html=1;align=center;verticalAlign=middle;resizable=0;points=[];autosize=1;strokeColor=none;fillColor=none;" vertex="1" parent="1">
          <mxGeometry x="587.5" y="607" width="40" height="30" as="geometry" />
        </mxCell>
        <mxCell id="C-SW5UP0WmHQNfb3BsYA-202" value="No" style="text;html=1;align=center;verticalAlign=middle;resizable=0;points=[];autosize=1;strokeColor=none;fillColor=none;" vertex="1" parent="1">
          <mxGeometry x="600" y="752" width="40" height="30" as="geometry" />
        </mxCell>
        <mxCell id="C-SW5UP0WmHQNfb3BsYA-203" value="" style="endArrow=classic;html=1;rounded=0;" edge="1" parent="1">
          <mxGeometry width="50" height="50" relative="1" as="geometry">
            <mxPoint x="250.63" y="764" as="sourcePoint" />
            <mxPoint x="250.63" y="694" as="targetPoint" />
          </mxGeometry>
        </mxCell>
        <mxCell id="C-SW5UP0WmHQNfb3BsYA-204" value="" style="endArrow=none;html=1;rounded=0;exitX=0;exitY=0.5;exitDx=0;exitDy=0;" edge="1" parent="1" source="C-SW5UP0WmHQNfb3BsYA-218">
          <mxGeometry width="50" height="50" relative="1" as="geometry">
            <mxPoint x="365" y="782" as="sourcePoint" />
            <mxPoint x="250.63" y="764" as="targetPoint" />
          </mxGeometry>
        </mxCell>
        <mxCell id="C-SW5UP0WmHQNfb3BsYA-205" value="" style="endArrow=none;html=1;rounded=0;exitX=0.5;exitY=1;exitDx=0;exitDy=0;" edge="1" parent="1" source="C-SW5UP0WmHQNfb3BsYA-215">
          <mxGeometry width="50" height="50" relative="1" as="geometry">
            <mxPoint x="450.63" y="804" as="sourcePoint" />
            <mxPoint x="461" y="762" as="targetPoint" />
          </mxGeometry>
        </mxCell>
        <mxCell id="C-SW5UP0WmHQNfb3BsYA-206" value="" style="edgeStyle=orthogonalEdgeStyle;rounded=0;orthogonalLoop=1;jettySize=auto;html=1;" edge="1" parent="1" source="C-SW5UP0WmHQNfb3BsYA-207">
          <mxGeometry relative="1" as="geometry">
            <mxPoint x="440.63" y="692" as="targetPoint" />
          </mxGeometry>
        </mxCell>
        <mxCell id="C-SW5UP0WmHQNfb3BsYA-207" value="i==number&lt;br&gt;of books" style="rhombus;whiteSpace=wrap;html=1;" vertex="1" parent="1">
          <mxGeometry x="270.63" y="652" width="90" height="80" as="geometry" />
        </mxCell>
        <mxCell id="C-SW5UP0WmHQNfb3BsYA-208" value="No" style="text;html=1;align=center;verticalAlign=middle;resizable=0;points=[];autosize=1;strokeColor=none;fillColor=none;" vertex="1" parent="1">
          <mxGeometry x="364" y="667" width="40" height="30" as="geometry" />
        </mxCell>
        <mxCell id="C-SW5UP0WmHQNfb3BsYA-209" value="exit" style="ellipse;whiteSpace=wrap;html=1;aspect=fixed;" vertex="1" parent="1">
          <mxGeometry x="295.63" y="594" width="40" height="40" as="geometry" />
        </mxCell>
        <mxCell id="C-SW5UP0WmHQNfb3BsYA-210" value="" style="endArrow=classic;html=1;rounded=0;entryX=0.5;entryY=1;entryDx=0;entryDy=0;exitX=0.5;exitY=0;exitDx=0;exitDy=0;" edge="1" parent="1" source="C-SW5UP0WmHQNfb3BsYA-207" target="C-SW5UP0WmHQNfb3BsYA-209">
          <mxGeometry width="50" height="50" relative="1" as="geometry">
            <mxPoint x="280.63" y="684" as="sourcePoint" />
            <mxPoint x="330.63" y="634" as="targetPoint" />
          </mxGeometry>
        </mxCell>
        <mxCell id="C-SW5UP0WmHQNfb3BsYA-211" value="" style="edgeStyle=orthogonalEdgeStyle;rounded=0;orthogonalLoop=1;jettySize=auto;html=1;" edge="1" parent="1" target="C-SW5UP0WmHQNfb3BsYA-212">
          <mxGeometry relative="1" as="geometry">
            <mxPoint x="700" y="752" as="sourcePoint" />
            <mxPoint x="755" y="752" as="targetPoint" />
          </mxGeometry>
        </mxCell>
        <mxCell id="C-SW5UP0WmHQNfb3BsYA-212" value="exit" style="ellipse;whiteSpace=wrap;html=1;aspect=fixed;" vertex="1" parent="1">
          <mxGeometry x="730" y="732" width="40" height="40" as="geometry" />
        </mxCell>
        <mxCell id="C-SW5UP0WmHQNfb3BsYA-213" value="&lt;meta charset=&quot;utf-8&quot;&gt;&lt;span style=&quot;color: rgb(0, 0, 0); font-family: Helvetica; font-size: 12px; font-style: normal; font-variant-ligatures: normal; font-variant-caps: normal; font-weight: 400; letter-spacing: normal; orphans: 2; text-align: center; text-indent: 0px; text-transform: none; widows: 2; word-spacing: 0px; -webkit-text-stroke-width: 0px; background-color: rgb(251, 251, 251); text-decoration-thickness: initial; text-decoration-style: initial; text-decoration-color: initial; float: none; display: inline !important;&quot;&gt;cout &amp;lt;&amp;lt; not availible&lt;/span&gt;" style="shape=parallelogram;perimeter=parallelogramPerimeter;whiteSpace=wrap;html=1;fixedSize=1;" vertex="1" parent="1">
          <mxGeometry x="620" y="722" width="90" height="60" as="geometry" />
        </mxCell>
        <mxCell id="C-SW5UP0WmHQNfb3BsYA-214" value="" style="edgeStyle=orthogonalEdgeStyle;rounded=0;orthogonalLoop=1;jettySize=auto;html=1;" edge="1" parent="1" source="C-SW5UP0WmHQNfb3BsYA-215" target="C-SW5UP0WmHQNfb3BsYA-198">
          <mxGeometry relative="1" as="geometry" />
        </mxCell>
        <mxCell id="C-SW5UP0WmHQNfb3BsYA-215" value="name == book_name [i]" style="rhombus;whiteSpace=wrap;html=1;" vertex="1" parent="1">
          <mxGeometry x="406.25" y="652" width="110" height="80" as="geometry" />
        </mxCell>
        <mxCell id="C-SW5UP0WmHQNfb3BsYA-216" value="Yes" style="text;html=1;align=center;verticalAlign=middle;resizable=0;points=[];autosize=1;strokeColor=none;fillColor=none;" vertex="1" parent="1">
          <mxGeometry x="507.5" y="667" width="40" height="30" as="geometry" />
        </mxCell>
        <mxCell id="C-SW5UP0WmHQNfb3BsYA-217" value="No" style="text;html=1;align=center;verticalAlign=middle;resizable=0;points=[];autosize=1;strokeColor=none;fillColor=none;" vertex="1" parent="1">
          <mxGeometry x="462.5" y="737" width="40" height="30" as="geometry" />
        </mxCell>
        <mxCell id="C-SW5UP0WmHQNfb3BsYA-219" value="" style="endArrow=none;html=1;rounded=0;exitX=-0.025;exitY=0.833;exitDx=0;exitDy=0;exitPerimeter=0;" edge="1" parent="1" source="C-SW5UP0WmHQNfb3BsYA-217" target="C-SW5UP0WmHQNfb3BsYA-218">
          <mxGeometry width="50" height="50" relative="1" as="geometry">
            <mxPoint x="462" y="762" as="sourcePoint" />
            <mxPoint x="250.63" y="764" as="targetPoint" />
          </mxGeometry>
        </mxCell>
        <mxCell id="C-SW5UP0WmHQNfb3BsYA-218" value="i++" style="rounded=0;whiteSpace=wrap;html=1;" vertex="1" parent="1">
          <mxGeometry x="366.25" y="742" width="50" height="40" as="geometry" />
        </mxCell>
        <mxCell id="C-SW5UP0WmHQNfb3BsYA-221" value="" style="endArrow=none;html=1;rounded=0;exitX=-0.025;exitY=0.833;exitDx=0;exitDy=0;exitPerimeter=0;" edge="1" parent="1" source="C-SW5UP0WmHQNfb3BsYA-189" target="C-SW5UP0WmHQNfb3BsYA-220">
          <mxGeometry width="50" height="50" relative="1" as="geometry">
            <mxPoint x="472" y="962" as="sourcePoint" />
            <mxPoint x="260.63" y="964" as="targetPoint" />
          </mxGeometry>
        </mxCell>
        <mxCell id="C-SW5UP0WmHQNfb3BsYA-220" value="i++" style="rounded=0;whiteSpace=wrap;html=1;" vertex="1" parent="1">
          <mxGeometry x="366.25" y="942" width="50" height="40" as="geometry" />
        </mxCell>
        <mxCell id="C-SW5UP0WmHQNfb3BsYA-222" value="" style="edgeStyle=orthogonalEdgeStyle;rounded=0;orthogonalLoop=1;jettySize=auto;html=1;" edge="1" parent="1" source="C-SW5UP0WmHQNfb3BsYA-167" target="C-SW5UP0WmHQNfb3BsYA-172">
          <mxGeometry relative="1" as="geometry">
            <Array as="points" />
            <mxPoint x="599" y="852" as="sourcePoint" />
            <mxPoint x="655" y="832" as="targetPoint" />
          </mxGeometry>
        </mxCell>
        <mxCell id="C-SW5UP0WmHQNfb3BsYA-172" value="No" style="text;html=1;align=center;verticalAlign=middle;resizable=0;points=[];autosize=1;strokeColor=none;fillColor=none;" vertex="1" parent="1">
          <mxGeometry x="587.5" y="807" width="40" height="30" as="geometry" />
        </mxCell>
      </root>
    </mxGraphModel>
  </diagram>
</mxfile>
